# xmcd
#
# Track frame offsets: 
#        19502
#        22080
#        25295
#        46302
#        60775
#        68460
#        108425
#        140322
#        167507
#        204760
#        206485
#        227187
#        229325
#        242942
#
# Disc length: 3311 seconds
#
# Revision: 6
# Processed by: cddbd v1.5.2PL0 Copyright (c) Steve Scherf et al.
# Submitted via: ExactAudioCopyFreeDBPlugin 1.0
#
DISCID=ba0beb0e
DTITLE=James Brown - Live at the Apollo Volume II (Deluxe Edition)
DYEAR=2001
DGENRE=Soul
TTITLE0=Introduction to "Star Time" (MC Frankie Crocker with Sad Sam)
TTITLE1=Money Won't Change You - Out of Sight
TTITLE2=Bring it Up
TTITLE3=Try Me
TTITLE4=Let Yourself Go
TTITLE5=There Was a Time
TTITLE6=I Feel All Right
TTITLE7=Cold Sweat
TTITLE8=Prisoner of Love
TTITLE9=My Girl (instrumental interlude)
TTITLE10=Maybe the Last Time
TTITLE11=I Got You (I Feel Good)
TTITLE12=Please, Please, Please
TTITLE13=Bring it Up (Finale)
EXTD=YEAR: 2001
EXTT0=
EXTT1=
EXTT2=
EXTT3=
EXTT4=
EXTT5=
EXTT6=
EXTT7=
EXTT8=
EXTT9=
EXTT10=
EXTT11=
EXTT12=
EXTT13=
PLAYORDER=
